HIERARCHY
ROOT Hips
{
  OFFSET 7.333 -26.027 -164.856
  CHANNELS 6 Xposition Yposition Zposition Zrotation Xrotation Yrotation
  JOINT LeftUpLeg
  {
    OFFSET 10.092 0.000 0.000
    CHANNELS 3 Zrotation Xrotation Yrotation
    JOINT LeftLeg
    {
      OFFSET 0.000 -38.160 -0.000
    CHANNELS 3 Zrotation Xrotation Yrotation
      JOINT LeftFoot
      {
        OFFSET -0.000 -24.040 0.000
    CHANNELS 3 Zrotation Xrotation Yrotation
        End Site
        {
          OFFSET -0.000 0.000 12.945
        }
      }
    }
  }
  JOINT RightUpLeg
  {
    OFFSET -10.092 -0.000 0.000
    CHANNELS 3 Zrotation Xrotation Yrotation
    JOINT RightLeg
    {
      OFFSET 0.000 -33.046 0.000
    CHANNELS 3 Zrotation Xrotation Yrotation
      JOINT RightFoot
      {
        OFFSET 0.000 -22.031 -0.000
    CHANNELS 3 Zrotation Xrotation Yrotation
        End Site
        {
          OFFSET 0.000 -0.000 11.863
        }
      }
    }
  }
  JOINT Spine
  {
    OFFSET -0.000 16.511 0.000
    CHANNELS 3 Zrotation Xrotation Yrotation
    JOINT LeftShoulder
    {
      OFFSET 0 16.511 0
    CHANNELS 3 Zrotation Xrotation Yrotation
      JOINT LeftArm
      {
        OFFSET 16.337 0.000 0.000
    CHANNELS 3 Zrotation Xrotation Yrotation
        JOINT LeftForeArm
        {
          OFFSET 0.000 -24.030 0.000
    CHANNELS 3 Zrotation Xrotation Yrotation
          JOINT LeftHand
          {
            OFFSET 0.000 -17.629 -0.000
    CHANNELS 3 Zrotation Xrotation Yrotation
            End Site
            {
              OFFSET 0.000 -11.753 -0.000
            }
          }
        }
      }
    }
    JOINT RightShoulder
    {
      OFFSET 0 16.511 0
    CHANNELS 3 Zrotation Xrotation Yrotation
      JOINT RightArm
      {
        OFFSET -16.337 0.000 0.000
    CHANNELS 3 Zrotation Xrotation Yrotation
        JOINT RightForeArm
        {
          OFFSET -0.000 -19.534 0.000
    CHANNELS 3 Zrotation Xrotation Yrotation
          JOINT RightHand
          {
            OFFSET 0.000 -19.514 -0.000
    CHANNELS 3 Zrotation Xrotation Yrotation
            End Site
            {
              OFFSET 0.000 -13.010 -0.000
            }
          }
        }
      }
    }
    JOINT Neck
    {
      OFFSET -0.000 16.511 0.000
    CHANNELS 3 Zrotation Xrotation Yrotation
      JOINT Head
      {
        OFFSET -0.000 12.493 -0.000
    CHANNELS 3 Zrotation Xrotation Yrotation
        End Site
        {
          OFFSET -0.000 8.328 -0.000
        }
      }
    }
  }
}
MOTION
Frames: 26
Frame Time: 0.0333333
0 0 0 3.159010e+00 2.680710e+00 -1.099260e+01 -7.641300e+00 2.285790e+00 3.065830e-01 7.551330e+00 -5.308420e+00 -7.756000e-03 0 0 0 -5.654350e+00 6.701530e+00 6.619650e-01 6.811760e+00 -1.457740e+01 3.011100e-01 0 0 -4.135903e-25 0 0 2.200000e-05 0 0 0 9.667320e+00 -7.471130e+00 -1.027180e+01 -6.516310e+00 -4.216420e+01 -6.674890e-01 0 -1.000000e-06 0 0 0 0 -5.754950e+00 -1.225110e+01 7.501770e+01 -4.436880e+01 -1.511700e+01 -1.187500e+01 0 0 0 -4.351410e-01 1.913580e+00 1.452800e-02 0 0 1.000000e-06 
0 0 0 3.161879e+00 2.648839e+00 -1.109280e+01 -7.558110e+00 2.150920e+00 2.853240e-01 7.491020e+00 -5.293310e+00 -5.695000e-03 0 0 0 -5.584420e+00 6.350140e+00 6.195970e-01 6.709910e+00 -1.412610e+01 2.831170e-01 0 0 -4.135903e-25 5.000000e-06 1.000000e-06 3.200000e-05 0 0 0 8.635050e+00 -9.541720e+00 -2.398740e+01 1.850400e+01 -5.063470e+01 1.703690e+01 0 -1.000000e-06 0 0 0 0 -7.295840e+00 -1.745070e+01 7.447670e+01 -4.958350e+01 -1.894520e+01 -1.884140e+01 0 0 0 -4.262550e-01 2.077340e+00 1.545000e-02 0 0 0 
0 0 0 2.877871e+00 2.685340e+00 -1.091860e+01 -7.246500e+00 2.018580e+00 2.566160e-01 7.649010e+00 -4.996290e+00 3.545100e-02 0 0 -6.177606e-08 -4.919470e+00 5.807200e+00 4.989710e-01 6.106080e+00 -1.298100e+01 2.722750e-01 0 0 2.272727e-08 -5.084746e-07 -6.896552e-08 -3.000000e-06 0 0 0 8.622710e+00 -1.275630e+01 -3.916970e+01 4.640040e+01 -4.626810e+01 3.876030e+01 4.975124e-08 -1.333333e-07 -9.090909e-09 0 0 0 -8.275990e+00 -2.130240e+01 7.440950e+01 -5.662180e+01 -2.074410e+01 -2.680710e+01 1.834862e-08 -6.534727e-23 -1.145038e-07 -4.737290e-01 2.167470e+00 1.791600e-02 0 0 1.842105e-07 
0 0 0 2.857530e+00 2.923688e+00 -1.099060e+01 -7.038600e+00 2.406258e+00 2.964795e-01 7.175950e+00 -6.432200e+00 1.608900e-02 0 0 NaN -5.110090e+00 5.329750e+00 4.759120e-01 6.733400e+00 -1.266430e+01 3.608490e-01 0 0 -2.619044e-08 NaN NaN -3.500000e-05 0 0 0 7.305302e+00 -1.774760e+01 -5.867360e+01 6.562920e+01 -2.750650e+01 4.623800e+01 -3.846154e-08 NaN 2.009902e-08 0 0 0 -7.864933e+00 -2.715277e+01 7.757055e+01 -6.219320e+01 -1.842291e+01 -3.047354e+01 3.456283e-08 1.898539e-08 NaN -3.518960e-01 2.127965e+00 1.306700e-02 0 0 NaN 
0 0 0 2.801719e+00 2.700050e+00 -1.118865e+01 -6.849370e+00 2.021250e+00 2.427831e-01 7.022190e+00 -5.478010e+00 1.691000e-02 0 0 NaN -4.817270e+00 5.384670e+00 4.525448e-01 6.416305e+00 -1.251983e+01 3.514210e-01 0 0 -1.672226e-07 NaN 6.771907e-08 4.600000e-05 0 0 0 7.625433e+00 -2.367678e+01 -6.677160e+01 7.541400e+01 -1.939680e+01 5.035720e+01 0 NaN 3.270150e-07 0 0 0 -8.879534e+00 -3.219320e+01 7.739420e+01 -7.131860e+01 -2.001468e+01 -4.702779e+01 2.238889e-08 9.132683e-09 NaN -3.543600e-01 2.186455e+00 1.352200e-02 0 0 NaN 
0 0 0 NaN NaN NaN -5.552040e+00 NaN NaN 7.470710e+00 -6.122900e+00 2.051460e-01 0 0 -2.926829e-08 -3.345200e+00 5.830240e+00 NaN NaN NaN 7.250080e-01 0 0 NaN -2.963918e-07 NaN -1.300000e-05 0 0 0 NaN NaN -5.751950e+01 8.726110e+01 -2.648810e+01 7.896190e+01 NaN 1.250000e-07 NaN 0 0 0 NaN NaN NaN -7.940650e+01 NaN NaN NaN NaN 1.508876e-07 -2.051150e-01 NaN 7.937000e-03 0 0 9.448819e-08 
0 0 0 4.521840e-01 3.083176e+00 -1.324069e+01 -2.083520e+00 2.243190e+00 1.010469e-01 4.566490e+00 -5.721020e+00 2.478300e-01 0 0 NaN -4.526860e-01 5.512060e+00 4.499456e-02 4.806176e+00 -1.285152e+01 9.727520e-01 0 0 NaN NaN NaN -2.900000e-05 0 0 0 1.662051e+01 -2.849442e+01 -5.277981e+01 9.741690e+01 -2.804050e+01 9.869750e+01 8.610159e-08 NaN NaN 0 0 0 -4.073765e+00 -3.868813e+01 8.622273e+01 -8.735150e+01 -1.682161e+01 -8.643270e+01 -1.554951e-08 -1.671871e-07 NaN -2.843260e-01 2.277957e+00 1.141100e-02 0 0 NaN 
0 0 0 3.077498e-01 NaN NaN -4.461010e-01 3.310920e+00 1.352384e-01 3.088140e+00 -5.396810e+00 2.487400e-01 0 0 NaN 1.117490e+00 6.064520e+00 -7.463187e-02 4.811904e+00 -1.373000e+01 1.003600e+00 0 0 -9.779620e-09 NaN -1.038395e-07 -5.000000e-06 0 0 0 1.912750e+01 -3.009560e+01 -5.055600e+01 1.041660e+02 -2.754230e+01 1.109530e+02 NaN NaN -3.026310e-08 0 0 0 -3.090710e+00 -4.433020e+01 8.580095e+01 -9.317090e+01 -1.686032e+01 NaN NaN NaN NaN -1.872060e-01 NaN 6.722000e-03 0 0 NaN 
0 0 0 NaN NaN NaN -4.566700e-01 NaN NaN 3.217610e+00 -6.783060e+00 3.265500e-01 0 0 -1.965602e-08 1.307140e+00 6.479610e+00 NaN NaN NaN 9.049270e-01 0 0 NaN -2.941176e-07 NaN -2.500000e-05 0 0 0 NaN NaN NaN 1.124020e+02 -2.860150e+01 1.233870e+02 NaN 1.240506e-07 NaN 0 0 0 NaN NaN NaN -9.769860e+01 NaN NaN NaN NaN 1.390533e-07 -4.013830e-01 NaN 1.303000e-02 0 0 9.685864e-08 
0 0 0 NaN 4.598033e-01 -1.215933e+01 -8.161930e-01 NaN NaN 3.606330e+00 -7.356280e+00 3.579520e-01 0 0 NaN 7.990720e-01 6.743910e+00 NaN NaN NaN 1.024880e+00 0 0 NaN NaN NaN 1.600000e-05 0 0 0 2.295410e+01 -3.196270e+01 -4.700800e+01 1.174700e+02 -2.619280e+01 1.323040e+02 7.299270e-08 NaN NaN 0 0 0 1.967480e-01 -5.192550e+01 NaN -1.008910e+02 NaN 3.429997e-01 1.075335e-23 1.486989e-08 NaN -3.498780e-01 7.418871e-01 NaN 0 0 NaN 
0 0 0 4.241378e-01 NaN NaN -1.002620e+00 7.373950e+00 3.470907e-01 3.757960e+00 -6.915780e+00 3.325660e-01 0 0 NaN 6.677660e-01 6.461150e+00 8.782245e-02 4.230450e+00 -1.332653e+01 NaN 0 0 1.199412e-23 NaN -2.484472e-08 -3.000000e-06 0 0 0 2.159500e+01 -3.593310e+01 -5.250230e+01 NaN -2.280260e+01 1.370760e+02 NaN NaN -2.380952e-08 0 0 0 -1.274960e+00 NaN 6.815208e+01 NaN -2.900464e+00 NaN -4.466775e-23 NaN NaN NaN NaN 2.330000e-03 0 0 NaN 
0 0 0 NaN NaN NaN -1.523540e+00 NaN NaN 4.279210e+00 -7.818380e+00 3.763960e-01 0 0 -4.697987e-08 2.598470e-01 7.344760e+00 NaN NaN NaN 9.267690e-01 0 0 -3.773585e-09 -3.833866e-07 NaN 1.100000e-05 0 0 0 2.137190e+01 -3.599380e+01 -5.292980e+01 1.217670e+02 -2.255060e+01 1.412350e+02 NaN 1.292308e-07 NaN 0 0 0 8.626740e-01 -5.402490e+01 NaN -1.077410e+02 NaN NaN 1.071429e-07 NaN 1.267123e-07 -8.814800e-02 NaN 2.512000e-03 0 0 7.092199e-09 
0 0 0 NaN 5.019632e-01 -1.214191e+01 -1.489650e+00 NaN NaN 4.760010e+00 -7.604390e+00 4.342410e-01 0 0 NaN 5.006490e-01 7.338470e+00 NaN NaN NaN 1.040990e+00 0 0 NaN NaN NaN -5.300000e-05 0 0 0 2.106790e+01 -3.730360e+01 -5.452500e+01 1.230920e+02 -2.076510e+01 1.448020e+02 5.135952e-08 NaN NaN 0 0 0 3.251960e+00 -5.265490e+01 NaN -1.105660e+02 NaN 1.017240e+00 NaN -2.990033e-08 NaN -2.171810e-01 7.613147e-01 6.353000e-03 0 0 NaN 
0 0 0 4.095490e-01 NaN NaN NaN 7.301047e+00 3.500213e-01 4.545140e+00 -7.435070e+00 4.055150e-01 0 0 NaN 6.563080e-01 6.452440e+00 1.109630e-01 4.160351e+00 -1.342209e+01 NaN 0 0 NaN NaN 4.210526e-08 -2.700000e-05 0 0 0 2.009660e+01 -3.753660e+01 NaN 1.247930e+02 -1.903100e+01 NaN NaN NaN 6.341463e-08 0 0 0 5.821210e+00 -4.953090e+01 7.020097e+01 -1.113310e+02 -3.881353e+00 NaN NaN NaN NaN NaN NaN 3.684000e-03 0 0 NaN 
0 0 0 NaN NaN NaN -1.710140e+00 NaN NaN 4.336690e+00 -7.554000e+00 3.467890e-01 0 0 -5.054152e-08 1.198700e-01 6.475480e+00 NaN NaN NaN 8.997240e-01 0 0 7.434944e-09 -2.961672e-07 NaN 1.000000e-06 0 0 0 1.898600e+01 -3.720520e+01 -5.787760e+01 1.252970e+02 -1.787910e+01 1.508250e+02 NaN 6.440678e-08 NaN 0 0 0 7.498950e+00 -4.618950e+01 NaN -1.117110e+02 NaN NaN 4.942966e-08 NaN 1.766784e-07 NaN NaN 7.310000e-04 0 0 6.785714e-08 
0 0 0 NaN 4.531017e-01 -1.222083e+01 -2.198900e+00 NaN NaN 5.326470e+00 -9.062700e+00 4.958430e-01 0 0 NaN -6.307130e-01 6.546070e+00 NaN NaN NaN 9.541500e-01 0 0 NaN NaN NaN 9.000000e-06 0 0 0 1.746990e+01 -3.762720e+01 -6.049490e+01 1.252290e+02 -1.710790e+01 1.518990e+02 6.440678e-08 NaN NaN 0 0 0 7.620430e+00 NaN NaN -1.117640e+02 NaN -7.631679e-01 NaN 2.651515e-08 NaN 4.267156e-02 7.755612e-01 -1.587000e-03 0 0 NaN 
0 0 0 4.057467e-01 NaN NaN -2.013900e+00 7.310659e+00 3.500213e-01 NaN NaN 4.916070e-01 0 0 NaN -5.880540e-01 7.291270e+00 1.167741e-01 4.172853e+00 -1.339406e+01 NaN 0 0 NaN NaN 2.105263e-08 -3.200000e-05 0 0 0 1.627330e+01 -3.525530e+01 NaN NaN -1.836700e+01 1.514040e+02 NaN NaN 6.372549e-08 0 0 0 6.176870e+00 -3.795190e+01 7.020686e+01 -1.128260e+02 -4.012117e+00 NaN NaN NaN NaN NaN NaN -2.315000e-03 0 0 NaN 
0 0 0 NaN NaN NaN -1.907380e+00 NaN NaN 5.102480e+00 -9.289430e+00 5.194120e-01 0 0 -3.942652e-08 -6.132350e-01 8.730110e+00 NaN NaN NaN 1.213830e+00 0 0 -3.717472e-09 -2.797203e-07 NaN 2.700000e-05 0 0 0 1.547240e+01 -3.404790e+01 -6.104960e+01 1.263420e+02 -1.838740e+01 1.514220e+02 NaN 6.164384e-08 NaN 0 0 0 3.240460e+00 -3.364240e+01 NaN -1.145500e+02 NaN NaN 4.263566e-08 NaN 1.607143e-07 NaN NaN -3.262000e-03 0 0 6.498195e-08 
0 0 0 NaN 4.456818e-01 -1.223123e+01 -1.873500e+00 NaN NaN 4.433790e+00 -9.415120e+00 4.222770e-01 0 0 NaN -7.306850e-01 9.070750e+00 NaN NaN NaN 1.157910e+00 0 0 NaN NaN NaN -1.500000e-05 0 0 0 1.529410e+01 -3.551340e+01 -6.238710e+01 1.249730e+02 -1.635890e+01 1.526570e+02 8.417508e-08 NaN NaN 0 0 0 1.695660e+00 NaN NaN -1.157110e+02 NaN -2.246897e+00 NaN 1.145038e-08 NaN 4.443429e-02 7.723580e-01 -1.768000e-03 0 0 NaN 
0 0 0 4.067137e-01 NaN NaN -2.279790e+00 7.318283e+00 3.497214e-01 4.884220e+00 -8.937260e+00 4.083910e-01 0 0 NaN -1.298730e+00 8.950260e+00 1.147329e-01 4.208478e+00 -1.342979e+01 1.160310e+00 0 0 NaN NaN 2.127660e-08 NaN 0 0 0 NaN -3.637660e+01 -6.212700e+01 1.244710e+02 -1.478200e+01 1.541790e+02 NaN NaN 6.896552e-08 0 0 0 8.406230e-01 NaN 7.025760e+01 -1.160030e+02 -3.967358e+00 NaN NaN NaN NaN NaN NaN -2.099000e-03 0 0 NaN 
0 0 0 NaN NaN NaN -2.106930e+00 NaN NaN NaN -9.200420e+00 4.536330e-01 0 0 -3.913043e-08 -1.100110e+00 7.804870e+00 NaN NaN NaN 1.079480e+00 0 0 4.048583e-09 -3.386454e-07 NaN 1.466667e-05 0 0 0 1.774100e+01 -3.743770e+01 -5.973050e+01 1.255990e+02 -1.490000e+01 1.546980e+02 NaN 4.263566e-08 NaN 0 0 0 -1.595270e-01 -3.558317e+01 NaN -1.168370e+02 NaN NaN 2.136752e-08 NaN 1.244635e-07 NaN NaN -1.587000e-03 0 0 6.530612e-08 
0 0 0 NaN 4.515393e-01 -1.218360e+01 NaN NaN NaN 4.425410e+00 -1.032840e+01 5.019330e-01 0 0 NaN -3.765580e-01 6.899070e+00 NaN NaN NaN 9.399450e-01 0 0 NaN NaN NaN NaN 0 0 0 NaN -3.791530e+01 -5.524410e+01 1.250550e+02 -1.452460e+01 1.542590e+02 6.060606e-08 NaN NaN 0 0 0 -1.269050e+00 NaN NaN -1.170320e+02 NaN -1.130128e+00 NaN 1.123596e-08 NaN 4.396006e-02 7.629923e-01 2.295000e-03 0 0 NaN 
0 0 0 4.017948e-01 NaN NaN -1.197210e+00 7.310659e+00 3.500213e-01 4.145720e+00 -8.550880e+00 4.399310e-01 0 0 NaN -5.446700e-02 6.613440e+00 1.141823e-01 4.159458e+00 -1.340864e+01 1.025020e+00 0 0 NaN NaN 2.116402e-08 NaN 0 0 0 NaN -3.570930e+01 -4.924600e+01 1.267650e+02 NaN 1.555180e+02 NaN NaN 6.403941e-08 0 0 0 -1.826290e+00 NaN 6.999773e+01 -1.179220e+02 -4.012121e+00 NaN NaN NaN NaN NaN NaN 4.251000e-03 0 0 NaN 
0 0 0 NaN NaN NaN NaN NaN NaN 4.874760e+00 -9.490930e+00 5.721970e-01 0 0 -3.940887e-08 NaN 6.309840e+00 NaN NaN NaN 9.545390e-01 0 0 9.523810e-09 2.380952e-08 NaN -1.628713e-06 0 0 0 2.700593e+01 -3.408680e+01 -4.304500e+01 1.262790e+02 -1.488310e+01 NaN NaN 3.703704e-08 NaN 0 0 0 -5.796990e+00 -3.581116e+01 NaN -1.188140e+02 NaN NaN -1.123596e-08 NaN 1.497326e-07 NaN NaN 9.185000e-03 0 0 3.571429e-08 
0 0 0 NaN 4.437345e-01 -1.217650e+01 -1.174070e+00 NaN NaN 4.345820e+00 -8.046060e+00 4.456690e-01 0 0 NaN 2.303160e-01 7.481830e+00 NaN NaN NaN NaN 0 0 NaN NaN NaN NaN 0 0 0 NaN NaN -3.732200e+01 1.266010e+02 -1.583490e+01 1.523580e+02 6.143345e-08 NaN NaN 0 0 0 -9.895490e+00 NaN NaN -1.192560e+02 NaN -4.970814e-01 NaN 3.731343e-09 NaN 3.805308e-02 7.783274e-01 1.059900e-02 0 0 NaN 
0 0 0 4.020073e-01 NaN NaN -8.077480e-01 7.310659e+00 3.475376e-01 NaN -8.110510e+00 4.787320e-01 0 0 NaN 5.732530e-01 7.406870e+00 1.147329e-01 4.162305e+00 -1.340856e+01 1.041400e+00 0 0 NaN NaN 2.105263e-08 NaN 0 0 0 NaN NaN -3.113600e+01 1.261300e+02 -1.658110e+01 1.506840e+02 NaN NaN 5.911330e-08 0 0 0 -1.488010e+01 NaN 6.992771e+01 -1.189750e+02 -3.972485e+00 NaN NaN NaN NaN NaN NaN -1.154000e-03 0 0 NaN 
